<svg xmlns="http://www.w3.org/2000/svg" viewBox="0 0 34.909 35">
  <defs>
    <style>
      .cls-1 {
        fill: #fff;
      }
    </style>
  </defs>
  <g id="Facebook" transform="translate(-1768 -2800.709)">
    <path id="Path_142" data-name="Path 142" class="cls-1" d="M33.213,36.5H1.936A1.877,1.877,0,0,0,0,38.436V69.713A1.95,1.95,0,0,0,1.936,71.5h16.83V57.947H14.149V52.585h4.617V48.713c0-4.468,2.83-7,6.851-7,1.936,0,3.574.149,4.021.149v4.766h-2.83c-2.234,0-2.681,1.043-2.681,2.532v3.426H29.34L28.6,57.947H23.979V71.5h8.936a1.972,1.972,0,0,0,1.936-1.936V38.287C35.149,37.245,34.255,36.5,33.213,36.5Z" transform="translate(1768 2764.209)"/>
  </g>
</svg>
