<svg xmlns="http://www.w3.org/2000/svg" viewBox="0 0 35 34.854">
  <defs>
    <style>
      .cls-1 {
        fill: #fff;
      }
    </style>
  </defs>
  <g id="Insta" transform="translate(-1823 -2800.709)">
    <path id="Path_143" data-name="Path 143" class="cls-1" d="M17.454,3.062c4.667,0,5.25,0,7,.146a15.845,15.845,0,0,1,3.208.583A4.944,4.944,0,0,1,29.7,5.1a4.944,4.944,0,0,1,1.313,2.042,6.8,6.8,0,0,1,.583,3.208c.146,1.9.146,2.333.146,7s0,5.25-.146,7a9.47,9.47,0,0,1-.583,3.208,5.713,5.713,0,0,1-3.354,3.354,6.8,6.8,0,0,1-3.208.583c-1.9.146-2.333.146-7,.146s-5.25,0-7-.146a15.846,15.846,0,0,1-3.208-.583A4.944,4.944,0,0,1,5.2,29.6a4.944,4.944,0,0,1-1.313-2.042,6.8,6.8,0,0,1-.583-3.208c-.146-1.9-.146-2.333-.146-7s0-5.25.146-7a9.47,9.47,0,0,1,.583-3.208A4.944,4.944,0,0,1,5.2,5.1,4.944,4.944,0,0,1,7.246,3.792a6.8,6.8,0,0,1,3.208-.583c1.9,0,2.333-.146,7-.146m0-3.062c-4.667,0-5.25,0-7.146.146A11.028,11.028,0,0,0,6.079.875,8.068,8.068,0,0,0,3.017,2.917,8.068,8.068,0,0,0,.975,5.979a11.028,11.028,0,0,0-.729,4.229C.1,12.1.1,12.687.1,17.354S.1,22.6.246,24.5a14.245,14.245,0,0,0,.875,4.229,8.068,8.068,0,0,0,2.042,3.063,8.068,8.068,0,0,0,3.063,2.042,14.244,14.244,0,0,0,4.229.875c1.9.146,2.479.146,7.146.146s5.25,0,7.146-.146a14.244,14.244,0,0,0,4.229-.875,8.068,8.068,0,0,0,3.062-2.042,8.068,8.068,0,0,0,2.042-3.062,14.245,14.245,0,0,0,.875-4.229c.146-1.9.146-2.479.146-7.146s0-5.25-.146-7.146a14.244,14.244,0,0,0-.875-4.229,10.786,10.786,0,0,0-2.187-3.062A8.068,8.068,0,0,0,28.829.875,14.244,14.244,0,0,0,24.6,0Z" transform="translate(1822.901 2800.709)"/>
    <path id="Path_144" data-name="Path 144" class="cls-1" d="M14.714,5.8a8.815,8.815,0,1,0,8.814,8.815A8.757,8.757,0,0,0,14.714,5.8Zm0,14.595a5.78,5.78,0,1,1,5.78-5.78A5.8,5.8,0,0,1,14.714,20.395Z" transform="translate(1825.64 2803.448)"/>
    <ellipse id="Ellipse_6" data-name="Ellipse 6" class="cls-1" cx="2.061" cy="2.061" rx="2.061" ry="2.061" transform="translate(1847.616 2806.681)"/>
  </g>
</svg>
