<?xml version="1.0" encoding="utf-8"?>
<!-- Generator: Adobe Illustrator 23.0.0, SVG Export Plug-In . SVG Version: 6.00 Build 0)  -->
<svg version="1.1" id="Layer_1" xmlns="http://www.w3.org/2000/svg" xmlns:xlink="http://www.w3.org/1999/xlink" x="0px" y="0px"
	 viewBox="0 0 35 35" style="enable-background:new 0 0 35 35;" xml:space="preserve">
<style type="text/css">
	.st0{fill:#FFFFFF;}
	.st1{fill:#002855;}
</style>
<g id="Linkedin" transform="translate(-1713 -2800.709)">
	<path id="Path_174" class="st0" d="M1745.3,2800.7h-29.7c-1.4,0-2.6,1.1-2.6,2.5v29.9c0,1.4,1.2,2.6,2.6,2.5h29.8
		c1.4,0,2.6-1.1,2.6-2.5v-29.9C1747.9,2801.8,1746.7,2800.7,1745.3,2800.7z"/>
	<path id="Path_175" class="st1" d="M1718.3,2813.9h5.3v16.5h-5.3V2813.9z M1720.9,2805.6c1.6,0,3,1.3,3,2.9c-0.1,1.7-1.5,3-3.1,2.9
		s-2.9-1.3-2.9-2.9C1717.9,2806.9,1719.3,2805.6,1720.9,2805.6"/>
	<path id="Path_176" class="st1" d="M1726.1,2813.3h5.1v2.3h0.1c1.1-1.8,3-2.8,5-2.7c5.3,0,6.4,3.6,6.4,8.2v9.3h-5.3v-8.3
		c0-2,0-4.5-2.7-4.5s-3.2,2.1-3.2,4.4v8.4h-5.3L1726.1,2813.3L1726.1,2813.3L1726.1,2813.3z"/>
</g>
</svg>
