<?xml version="1.0" encoding="utf-8"?>
<!-- Generator: Adobe Illustrator 23.0.1, SVG Export Plug-In . SVG Version: 6.00 Build 0)  -->
<svg version="1.1" id="Layer_1" xmlns="http://www.w3.org/2000/svg" xmlns:xlink="http://www.w3.org/1999/xlink" x="0px" y="0px"
	 viewBox="0 0 208.4 44.1" style="enable-background:new 0 0 208.4 44.1;" xml:space="preserve">
<style type="text/css">
	.st0{fill:#FFFFFF;}
</style>
<g>
	<path class="st0" d="M16.2,17.8c0,0,0.1,0.1,0.1,0.1c0,0,0,0,0,0c0,0,0.1,0,0.1-0.1l1.2-1.2c0,0,0.1-0.1,0.1-0.1c0,0,0-0.1-0.1-0.1
		L3.2,3C3.1,2.9,3,2.9,2.9,3c-0.1,0.1-0.1,0.2,0,0.2L16.2,17.8z M17.3,16.5l-0.9,0.9L5.9,6L17.3,16.5z"/>
	<path class="st0" d="M18.4,15.9c0,0,0,0.1,0.1,0.1c0,0,0,0,0.1,0c0,0,0,0,0.1,0l1.6-0.7c0,0,0.1-0.1,0.1-0.1c0,0,0-0.1,0-0.1
		L13.7,1.2c0-0.1-0.1-0.1-0.2-0.1c-0.1,0-0.1,0.1-0.1,0.2L18.4,15.9z M19.9,15.1l-1.2,0.5L14.7,4.3L19.9,15.1z"/>
	<path class="st0" d="M21.3,15.1H23c0,0,0.1,0,0.1-0.1c0,0,0.1-0.1,0-0.1l-0.9-13c0-0.1-0.1-0.2-0.2-0.2c-0.1,0-0.2,0.1-0.2,0.2
		l-0.9,13c0,0,0,0.1,0,0.1C21.2,15.1,21.2,15.1,21.3,15.1z M22.1,4.6l0.7,10.1h-1.3L22.1,4.6z"/>
	<path class="st0" d="M24.6,16h-5c0,0-0.1,0-0.1,0.1l-3.5,3.5c0,0-0.1,0.1-0.1,0.1v5c0,0,0,0.1,0.1,0.1l3.5,3.5c0,0,0.1,0.1,0.1,0.1
		h5c0,0,0.1,0,0.1-0.1l3.5-3.5c0,0,0.1-0.1,0.1-0.1l0-5c0,0,0-0.1-0.1-0.1l-3.5-3.5C24.7,16,24.6,16,24.6,16z M25.1,18.8l-1.9,0.8
		l-0.8-2l2.1-1.2L25.1,18.8z M21.2,24.4l-1.3-1.3v-1.8l1.3-1.3c0,0,0,0,0,0c0,0,0,0,0,0H23c0,0,0,0,0,0c0,0,0,0,0,0l1.2,1.2
		c0,0,0,0,0,0c0,0,0,0,0,0v1.8c0,0,0,0,0,0c0,0,0,0,0,0L23,24.4c0,0,0,0,0,0H21.2z M22.8,24.7l-0.7,1.7l-0.7-1.7H22.8z M19.8,23.5
		l1,1l-1.7,0.7L19.8,23.5z M19.6,22.9l-1.7-0.7l1.7-0.7V22.9z M19.1,19.2l1.7,0.7l-1,1L19.1,19.2z M21.4,19.7l0.7-1.7l0.7,1.7H21.4z
		 M24.4,23.5l0.7,1.7l-1.7-0.7L24.4,23.5z M24.4,20.9l-1-1l1.7-0.7L24.4,20.9z M24.6,21.5l1.7,0.7l-1.7,0.7V21.5z M24,16.4l-1.9,1.1
		l-1.9-1.1H24z M19.7,16.5l2.1,1.2l-0.8,2l-1.9-0.8L19.7,16.5z M19.3,16.7l-0.6,2.1l-2.1,0.6L19.3,16.7z M18.7,19.2l0.8,1.9l-2,0.8
		l-1.2-2.1L18.7,19.2z M16.2,20.3l1.1,1.9l-1.1,1.9V20.3z M17.6,22.5l2,0.8l-0.8,1.9l-2.4-0.6L17.6,22.5z M16.6,25l2.1,0.6l0.6,2.1
		L16.6,25z M19.1,25.6l1.9-0.8l0.8,2L19.7,28L19.1,25.6z M20.2,28.1l1.9-1.1l1.9,1.1H20.2z M24.5,28l-2.1-1.2l0.8-2l1.9,0.8L24.5,28
		z M24.9,27.7l0.6-2.1l2.1-0.6L24.9,27.7z M25.5,25.2l-0.8-1.9l2-0.8l1.2,2.1L25.5,25.2z M28,24.1l-1.1-1.9l1.1-1.9L28,24.1z
		 M26.6,22l-2-0.8l0.8-1.9l2.4,0.6L26.6,22z M27.6,19.4l-2.1-0.6l-0.6-2.1L27.6,19.4z"/>
	<path class="st0" d="M29.3,23.3C29.3,23.3,29.3,23.3,29.3,23.3l13-0.9c0.1,0,0.2-0.1,0.2-0.2c0-0.1-0.1-0.2-0.2-0.2l-13-0.9
		c0,0-0.1,0-0.1,0c0,0-0.1,0.1-0.1,0.1v1.7c0,0,0,0.1,0.1,0.1C29.3,23.3,29.3,23.3,29.3,23.3z M29.5,21.6l10.1,0.7l-10.1,0.7V21.6z"
		/>
	<path class="st0" d="M42.5,13.6l-14.1,4.9c0,0-0.1,0.1-0.1,0.1c0,0,0,0.1,0,0.1l0.7,1.6c0,0,0.1,0.1,0.1,0.1c0,0,0,0,0.1,0
		c0,0,0.1,0,0.1,0l13.5-6.5c0.1,0,0.1-0.1,0.1-0.2C42.7,13.6,42.6,13.5,42.5,13.6z M29.2,20l-0.5-1.2l11-3.9L29.2,20z"/>
	<path class="st0" d="M26.5,16.5c0,0,0,0.1,0.1,0.1l1.2,1.2c0,0,0.1,0.1,0.1,0.1c0,0,0,0,0,0c0,0,0.1,0,0.1-0.1L41.3,3.3
		c0.1-0.1,0.1-0.2,0-0.2C41.2,3,41.1,3,41,3L26.5,16.4C26.5,16.4,26.5,16.4,26.5,16.5z M38.3,6.1L27.8,17.4l-0.9-0.9L38.3,6.1z"/>
	<path class="st0" d="M42.6,30.6l-13.5-6.5c0,0-0.1,0-0.1,0c0,0-0.1,0.1-0.1,0.1l-0.7,1.6c0,0,0,0.1,0,0.1c0,0,0.1,0.1,0.1,0.1
		l14.1,4.9c0,0,0,0,0.1,0c0.1,0,0.1,0,0.2-0.1C42.8,30.7,42.7,30.6,42.6,30.6z M28.7,25.7l0.5-1.2l10.5,5.1L28.7,25.7z"/>
	<path class="st0" d="M1.5,13.8L15,20.4c0,0,0.1,0,0.1,0c0,0,0,0,0.1,0c0,0,0.1-0.1,0.1-0.1l0.7-1.6c0,0,0-0.1,0-0.1
		c0,0-0.1-0.1-0.1-0.1L1.7,13.5c-0.1,0-0.2,0-0.2,0.1C1.4,13.7,1.4,13.8,1.5,13.8z M15.5,18.7L15,20L4.4,14.9L15.5,18.7z"/>
	<path class="st0" d="M24,15.4l1.6,0.7c0,0,0,0,0.1,0c0,0,0,0,0.1,0c0,0,0.1-0.1,0.1-0.1l5-14.5c0-0.1,0-0.2-0.1-0.2
		c-0.1,0-0.2,0-0.2,0.1l-6.6,13.8C23.9,15.2,23.9,15.2,24,15.4C23.9,15.3,24,15.3,24,15.4z M29.5,4.3l-3.9,11.3l-1.2-0.5L29.5,4.3z"
		/>
	<path class="st0" d="M17.7,27.9c0,0,0-0.1-0.1-0.1l-1.2-1.2c0,0-0.1,0-0.1-0.1c0,0-0.1,0-0.1,0.1L2.9,41.1c-0.1,0.1-0.1,0.2,0,0.2
		c0,0,0.1,0.1,0.1,0.1c0,0,0.1,0,0.1,0l14.5-13.3C17.7,28,17.7,28,17.7,27.9z M5.9,38.4L16.3,27l0.9,0.9L5.9,38.4z"/>
	<path class="st0" d="M25.8,28.5c0,0,0-0.1-0.1-0.1c0,0-0.1,0-0.1,0L24,29.1c0,0-0.1,0.1-0.1,0.1c0,0,0,0.1,0,0.1l6.6,13.8
		c0,0.1,0.1,0.1,0.2,0.1c0,0,0,0,0.1,0c0.1,0,0.1-0.1,0.1-0.2L25.8,28.5z M24.3,29.4l1.2-0.5l3.9,11.3L24.3,29.4z"/>
	<path class="st0" d="M20.1,29.1l-1.6-0.7c0,0-0.1,0-0.1,0c0,0-0.1,0.1-0.1,0.1l-5,14.5c0,0.1,0,0.2,0.1,0.2c0,0,0,0,0.1,0
		c0.1,0,0.1,0,0.2-0.1l6.6-13.8C20.2,29.3,20.2,29.2,20.1,29.1C20.2,29.1,20.2,29.1,20.1,29.1z M14.7,40.2l3.9-11.3l1.2,0.5
		L14.7,40.2z"/>
	<path class="st0" d="M22.9,29.3h-1.7c0,0-0.1,0-0.1,0.1c0,0-0.1,0.1,0,0.1l0.9,13c0,0.1,0.1,0.2,0.2,0.2s0.2-0.1,0.2-0.2l0.9-13
		c0,0,0-0.1,0-0.1C23,29.3,23,29.3,22.9,29.3z M22.1,39.8l-0.7-10.1h1.3L22.1,39.8z"/>
	<path class="st0" d="M27.9,26.6c0,0-0.1-0.1-0.1-0.1c0,0-0.1,0-0.1,0.1l-1.2,1.2c0,0-0.1,0.1-0.1,0.1c0,0,0,0.1,0.1,0.1L41,41.4
		c0,0,0.1,0,0.1,0c0,0,0.1,0,0.1-0.1c0.1-0.1,0.1-0.2,0-0.2L27.9,26.6z M26.8,28l0.9-0.9l10.4,11.4L26.8,28z"/>
	<path class="st0" d="M14.8,21.2L1.8,22c-0.1,0-0.2,0.1-0.2,0.2c0,0.1,0.1,0.2,0.2,0.2l13,0.9c0,0,0,0,0,0c0,0,0.1,0,0.1,0
		c0,0,0.1-0.1,0.1-0.1v-1.7c0,0,0-0.1-0.1-0.1C14.9,21.2,14.9,21.2,14.8,21.2z M14.6,22.9L4.5,22.2l10.1-0.7V22.9z"/>
	<path class="st0" d="M15.8,25.8c0,0,0-0.1,0-0.1l-0.7-1.6c0,0-0.1-0.1-0.1-0.1S15,24,15,24L1.5,30.5c-0.1,0-0.1,0.1-0.1,0.2
		c0,0.1,0.1,0.1,0.2,0.1c0,0,0,0,0.1,0l14.1-4.9C15.8,25.9,15.8,25.9,15.8,25.8z M4.4,29.5l10.5-5.1l0.5,1.2L4.4,29.5z"/>
	<polygon class="st0" points="56.3,16.7 54.8,8.4 49.4,8.4 49.4,24.3 52.8,24.3 52.8,12.8 54.7,24.3 57.9,24.3 59.7,12.8 59.7,24.3 
		63.1,24.3 63.1,8.4 57.7,8.4 	"/>
	<path class="st0" d="M73.5,8.4H68l-1.8,15.9h3.4l0.2-2.4h1.8l0.2,2.4h3.4L73.5,8.4z M70.1,19l0.5-7.6h0.3l0.5,7.6H70.1z"/>
	<polygon class="st0" points="81.8,16.4 83.6,24.3 87,24.3 87,8.4 83.6,8.4 83.6,16 82,8.4 78.4,8.4 78.4,24.3 81.8,24.3 	"/>
	<rect x="90.8" y="8.4" class="st0" width="3.4" height="15.9"/>
	<polygon class="st0" points="105.1,21.2 101.5,21.2 101.5,8.4 98,8.4 98,24.3 105.1,24.3 	"/>
	<path class="st0" d="M116.7,12.2c0-1.2-0.3-2.1-0.9-2.7c-0.6-0.7-1.6-1-2.9-1h-4.8v15.9h4.7c1.4,0,2.4-0.4,3-1.2
		c0.6-0.8,0.9-2,0.9-3.6L116.7,12.2z M113.2,20.6c0,0.6-0.3,0.8-1,0.8c-0.1,0-0.2,0-0.3,0c-0.1,0-0.2,0-0.2,0c-0.1,0-0.1,0-0.1,0
		V11.2c0.2,0,0.3,0,0.4,0c0.5,0,0.8,0.1,1,0.3c0.2,0.2,0.3,0.6,0.3,1.2V20.6z"/>
	<path class="st0" d="M128.5,10.2c-0.1-0.4-0.3-0.7-0.5-1c-0.2-0.2-0.5-0.4-0.9-0.6c-0.4-0.1-0.9-0.2-1.4-0.2h-5.4v15.9h3.6v-7.2
		c0.3,0,0.5,0,0.6,0c0.1,0,0.3,0.1,0.4,0.1c0.1,0.1,0.2,0.2,0.3,0.3c0,0.1,0.1,0.3,0.1,0.6v6.2h3.4c0-1.4,0-3.4,0-6
		c0-0.3,0-0.5,0-0.7c0-0.2-0.1-0.4-0.2-0.7c-0.1-0.2-0.2-0.4-0.5-0.6c-0.2-0.2-0.5-0.3-0.8-0.3c0.3-0.1,0.6-0.2,0.8-0.4
		c0.2-0.2,0.4-0.4,0.5-0.6c0.1-0.2,0.2-0.4,0.3-0.7c0.1-0.3,0.1-0.5,0.1-0.7c0-0.2,0-0.4,0-0.7c0-0.6,0-1.1-0.1-1.5
		C128.7,11,128.7,10.6,128.5,10.2z M124.7,14.3h-0.9v-3h0.2c0.6,0,0.9,0.1,1.1,0.3c0.2,0.2,0.3,0.6,0.3,1.2
		C125.4,13.8,125.2,14.3,124.7,14.3z"/>
	<path class="st0" d="M140.6,24.3l-1.8-15.9h-5.5l-1.8,15.9h3.4l0.2-2.4h1.8l0.2,2.4H140.6z M135.5,19l0.5-7.6h0.3l0.5,7.6H135.5z"
		/>
	<path class="st0" d="M159,24.3v-9.3h-4.3v2.7h0.9v1.8c0,0.6-0.1,1.1-0.2,1.3c-0.1,0.3-0.4,0.4-0.7,0.4c-0.2,0-0.4,0-0.5-0.1
		c-0.1-0.1-0.2-0.2-0.3-0.4c-0.1-0.2-0.1-0.4-0.1-0.5c0-0.2,0-0.4,0-0.6v-6.1c0-0.4,0-0.7,0-0.9c0-0.2,0-0.4,0.1-0.6
		c0-0.2,0.1-0.4,0.2-0.4c0.1-0.1,0.2-0.1,0.3-0.2c0.1-0.1,0.3-0.1,0.5-0.1c0.1,0,0.2,0,0.3,0c0.1,0,0.2,0.1,0.3,0.1
		c0.1,0.1,0.2,0.2,0.2,0.4c0.1,0.2,0.1,0.4,0.1,0.6v1.3h3.4c0-0.4,0-0.8,0-1.1c0-0.3,0-0.7-0.1-1c0-0.4-0.1-0.7-0.2-0.9
		c-0.1-0.3-0.2-0.5-0.3-0.8c-0.1-0.3-0.3-0.5-0.5-0.7c-0.2-0.2-0.5-0.3-0.8-0.5s-0.6-0.3-1-0.3c-0.4-0.1-0.8-0.1-1.3-0.1
		c-0.4,0-0.8,0-1.1,0.1c-0.3,0-0.7,0.2-1.1,0.3c-0.4,0.2-0.8,0.4-1.1,0.7c-0.3,0.3-0.5,0.7-0.7,1.3c-0.2,0.6-0.3,1.2-0.3,2v6.9
		c0,3.3,1.3,4.9,3.8,4.9c1.3,0,2.3-0.5,2.9-1.5l0.6,1.3H159z"/>
	<path class="st0" d="M170.9,10.2c-0.1-0.4-0.3-0.7-0.5-1c-0.2-0.2-0.5-0.4-0.9-0.6c-0.4-0.1-0.9-0.2-1.4-0.2h-5.4v15.9h3.6v-7.2
		c0.3,0,0.5,0,0.6,0c0.1,0,0.3,0.1,0.4,0.1c0.1,0.1,0.2,0.2,0.3,0.3c0,0.1,0.1,0.3,0.1,0.6v6.2h3.4c0-1.4,0-3.4,0-6
		c0-0.3,0-0.5,0-0.7c0-0.2-0.1-0.4-0.2-0.7c-0.1-0.2-0.2-0.4-0.5-0.6c-0.2-0.2-0.5-0.3-0.8-0.3c0.3-0.1,0.6-0.2,0.8-0.4
		c0.2-0.2,0.4-0.4,0.5-0.6c0.1-0.2,0.2-0.4,0.3-0.7c0.1-0.3,0.1-0.5,0.1-0.7c0-0.2,0-0.4,0-0.7c0-0.6,0-1.1-0.1-1.5
		C171.1,11,171,10.6,170.9,10.2z M167.1,14.3h-0.9v-3h0.2c0.6,0,0.9,0.1,1.1,0.3c0.2,0.2,0.3,0.6,0.3,1.2
		C167.8,13.8,167.5,14.3,167.1,14.3z"/>
	<path class="st0" d="M178.7,8.2c-1.4,0-2.5,0.4-3.2,1.1c-0.7,0.7-1.1,1.8-1.1,3.1V20c0,0.6,0.1,1.2,0.2,1.8c0.2,0.5,0.4,1,0.7,1.4
		c0.3,0.4,0.8,0.7,1.4,1c0.6,0.2,1.2,0.3,2,0.3c0.7,0,1.4-0.1,2-0.3c0.6-0.2,1-0.5,1.4-1c0.3-0.4,0.6-0.9,0.7-1.4
		c0.2-0.5,0.2-1.1,0.2-1.8v-7.6c0-1.3-0.4-2.4-1.1-3.1C181.3,8.6,180.2,8.3,178.7,8.2z M179.5,13c0,0.1,0,0.2,0,0.2v6.4
		c0,0,0,0,0,0.1c0,0.1,0,0.3,0,0.3c0,0.1,0,0.2,0,0.4c0,0.2,0,0.3-0.1,0.4c0,0.1-0.1,0.2-0.1,0.3c-0.1,0.1-0.1,0.2-0.2,0.2
		c-0.1,0-0.2,0.1-0.3,0.1c-0.1,0-0.3,0-0.4-0.1c-0.1-0.1-0.2-0.1-0.2-0.3c-0.1-0.1-0.1-0.2-0.1-0.3c0-0.1-0.1-0.2-0.1-0.4
		c0-0.2,0-0.3,0-0.4c0-0.1,0-0.2,0-0.3v-6.4c0,0,0,0,0-0.1s0,0,0-0.1c0-0.2,0-0.3,0-0.4c0-0.1,0-0.2,0-0.3c0-0.2,0-0.3,0.1-0.4
		c0-0.1,0.1-0.2,0.1-0.3c0.1-0.1,0.1-0.2,0.2-0.2c0.1,0,0.2-0.1,0.4-0.1c0.1,0,0.2,0,0.3,0s0.1,0.1,0.2,0.1c0.1,0.1,0.1,0.1,0.1,0.2
		c0,0,0.1,0.1,0.1,0.2c0,0.1,0,0.2,0.1,0.2c0,0.1,0,0.2,0,0.3c0,0.1,0,0.2,0,0.3C179.5,12.8,179.5,12.8,179.5,13z"/>
	<path class="st0" d="M191.7,19.8C191.7,19.8,191.7,19.8,191.7,19.8c0,0.2,0,0.3,0,0.4c0,0.1,0,0.2,0,0.3c0,0.1,0,0.3-0.1,0.4
		c0,0.1-0.1,0.2-0.1,0.3c-0.1,0.1-0.1,0.2-0.2,0.2c-0.1,0-0.2,0.1-0.4,0.1c-0.2,0-0.3,0-0.4-0.1s-0.2-0.2-0.3-0.3
		c-0.1-0.1-0.1-0.2-0.1-0.4c0-0.2,0-0.3,0-0.4c0-0.1,0-0.2,0-0.4c0,0,0-0.1,0-0.1V8.4h-3.4v11.7c0,1.4,0.3,2.5,1,3.3
		c0.7,0.7,1.8,1.1,3.3,1.1c1.5,0,2.5-0.4,3.2-1.1c0.7-0.7,1-1.8,1-3.3V8.4h-3.4V19.8z"/>
	<path class="st0" d="M207.1,10.9c-0.2-0.6-0.5-1.1-0.8-1.5c-0.4-0.4-0.8-0.6-1.2-0.8c-0.5-0.2-1-0.2-1.6-0.2h-4.6v15.9h3.5V18h1.4
		c0.7,0,1.3-0.1,1.8-0.3c0.5-0.2,0.9-0.5,1.1-1c0.3-0.4,0.5-0.9,0.6-1.5c0.1-0.6,0.2-1.2,0.2-2C207.3,12.3,207.3,11.6,207.1,10.9z
		 M203.8,14c0,0.2-0.1,0.4-0.1,0.6c-0.1,0.1-0.1,0.3-0.2,0.3c-0.1,0.1-0.2,0.1-0.3,0.2c-0.1,0-0.2,0.1-0.3,0.1c-0.1,0-0.2,0-0.4,0
		h-0.2v-3.8h0.4c0.5,0,0.8,0.1,1,0.4c0.2,0.3,0.3,0.8,0.3,1.5C203.9,13.5,203.9,13.8,203.8,14z"/>
	<path class="st0" d="M51,30.2c-0.1,0.2-0.1,0.3-0.2,0.4c-0.1,0.2-0.3,0.3-0.6,0.3c-0.1,0-0.4,0.1-0.8,0.1v0.8h1.4V36h1.2v-6h-1
		C51.1,30,51.1,30.1,51,30.2z"/>
	<path class="st0" d="M55.9,29.9c-0.8,0-1.3,0.3-1.6,0.8c-0.3,0.5-0.5,1.3-0.5,2.3c0,1,0.2,1.8,0.5,2.3c0.3,0.5,0.8,0.8,1.6,0.8
		c0.8,0,1.3-0.3,1.6-0.8c0.3-0.5,0.5-1.3,0.5-2.3c0-1-0.2-1.8-0.5-2.3C57.2,30.2,56.7,29.9,55.9,29.9z M56.6,34.6
		c-0.1,0.4-0.3,0.6-0.7,0.6c-0.4,0-0.6-0.2-0.7-0.6c-0.1-0.4-0.2-0.9-0.2-1.6c0-0.7,0.1-1.3,0.2-1.6c0.1-0.3,0.3-0.5,0.7-0.5
		c0.4,0,0.6,0.2,0.7,0.5c0.1,0.4,0.2,0.9,0.2,1.6C56.8,33.7,56.7,34.3,56.6,34.6z"/>
	<path class="st0" d="M60.7,29.9c-0.8,0-1.3,0.3-1.6,0.8c-0.3,0.5-0.5,1.3-0.5,2.3c0,1,0.2,1.8,0.5,2.3c0.3,0.5,0.8,0.8,1.6,0.8
		c0.8,0,1.3-0.3,1.6-0.8c0.3-0.5,0.5-1.3,0.5-2.3c0-1-0.2-1.8-0.5-2.3C62,30.2,61.4,29.9,60.7,29.9z M61.4,34.6
		c-0.1,0.4-0.3,0.6-0.7,0.6c-0.4,0-0.6-0.2-0.7-0.6c-0.1-0.4-0.2-0.9-0.2-1.6c0-0.7,0.1-1.3,0.2-1.6c0.1-0.3,0.3-0.5,0.7-0.5
		c0.4,0,0.6,0.2,0.7,0.5c0.1,0.4,0.2,0.9,0.2,1.6C61.5,33.7,61.5,34.3,61.4,34.6z"/>
	<path class="st0" d="M66.3,31.6c0-0.4-0.2-0.8-0.5-1.1c-0.3-0.3-0.7-0.5-1.1-0.5c-0.4,0-0.8,0.2-1.1,0.5c-0.3,0.3-0.5,0.7-0.5,1.1
		c0,0.4,0.2,0.8,0.5,1.1c0.3,0.3,0.7,0.5,1.1,0.5c0.4,0,0.8-0.2,1.1-0.5C66.2,32.3,66.3,32,66.3,31.6z M65.3,32
		c-0.1,0.1-0.3,0.2-0.5,0.2c-0.2,0-0.3-0.1-0.5-0.2c-0.1-0.1-0.2-0.3-0.2-0.5c0-0.2,0.1-0.3,0.2-0.5c0.1-0.1,0.3-0.2,0.5-0.2
		c0.2,0,0.3,0.1,0.5,0.2c0.1,0.1,0.2,0.3,0.2,0.5C65.5,31.7,65.4,31.9,65.3,32z"/>
	<polygon class="st0" points="68.2,30 64.8,36.2 65.4,36.2 68.8,30 	"/>
	<path class="st0" d="M68.8,33c-0.4,0-0.8,0.2-1.1,0.5c-0.3,0.3-0.5,0.7-0.5,1.1c0,0.4,0.2,0.8,0.5,1.1c0.3,0.3,0.7,0.5,1.1,0.5
		c0.4,0,0.8-0.2,1.1-0.5c0.3-0.3,0.5-0.7,0.5-1.1c0-0.4-0.2-0.8-0.5-1.1C69.6,33.2,69.3,33,68.8,33z M69.3,35.1
		c-0.1,0.1-0.3,0.2-0.5,0.2c-0.2,0-0.3-0.1-0.5-0.2c-0.1-0.1-0.2-0.3-0.2-0.5c0-0.2,0.1-0.3,0.2-0.5c0.1-0.1,0.3-0.2,0.5-0.2
		c0.2,0,0.3,0.1,0.5,0.2c0.1,0.1,0.2,0.3,0.2,0.5C69.5,34.8,69.4,34.9,69.3,35.1z"/>
	<path class="st0" d="M75.1,29.9L72.9,36h1.3l0.4-1.3h2.3l0.4,1.3h1.4l-2.2-6.1H75.1z M75,33.7l0.8-2.4l0.8,2.4H75z"/>
	<path class="st0" d="M83.1,33.6c0,0.4,0,0.7-0.1,0.9c-0.2,0.3-0.5,0.5-1,0.5c-0.5,0-0.9-0.2-1-0.5c-0.1-0.2-0.1-0.5-0.1-0.9v-3.8
		h-1.3v3.8c0,0.7,0.1,1.2,0.3,1.5c0.4,0.7,1.1,1,2.2,1c1.1,0,1.8-0.3,2.2-1c0.2-0.4,0.3-0.9,0.3-1.5v-3.8h-1.3V33.6z"/>
	<path class="st0" d="M89.9,33c-0.2-0.2-0.6-0.3-1.1-0.4l-1.1-0.3c-0.4-0.1-0.7-0.2-0.8-0.3c-0.2-0.1-0.3-0.3-0.3-0.5
		c0-0.2,0.1-0.4,0.3-0.6c0.2-0.1,0.5-0.2,0.8-0.2c0.3,0,0.6,0.1,0.8,0.2c0.3,0.2,0.5,0.4,0.5,0.8h1.2c0-0.7-0.3-1.1-0.7-1.5
		c-0.5-0.3-1-0.5-1.7-0.5c-0.8,0-1.4,0.2-1.8,0.5c-0.4,0.4-0.6,0.8-0.6,1.4c0,0.6,0.2,1,0.6,1.3c0.2,0.2,0.7,0.3,1.3,0.5l0.7,0.1
		c0.4,0.1,0.7,0.2,0.9,0.3c0.2,0.1,0.3,0.3,0.3,0.5c0,0.3-0.2,0.6-0.5,0.7c-0.2,0.1-0.4,0.1-0.8,0.1c-0.5,0-0.9-0.1-1.1-0.4
		c-0.1-0.1-0.2-0.3-0.2-0.6h-1.2c0,0.6,0.2,1.1,0.7,1.5c0.5,0.4,1.1,0.5,1.9,0.5c0.8,0,1.4-0.2,1.8-0.6c0.4-0.4,0.6-0.8,0.6-1.4
		C90.4,33.7,90.2,33.3,89.9,33z"/>
	<polygon class="st0" points="90.8,31 92.6,31 92.6,36 93.9,36 93.9,31 95.8,31 95.8,29.9 90.8,29.9 	"/>
	<path class="st0" d="M101.3,35.5c0-0.1,0-0.3,0-0.6v-0.4c0-0.4-0.1-0.7-0.2-1c-0.1-0.2-0.3-0.4-0.6-0.5c0.3-0.1,0.6-0.3,0.7-0.6
		c0.1-0.3,0.2-0.6,0.2-0.9c0-0.2,0-0.5-0.1-0.6c-0.1-0.2-0.2-0.4-0.3-0.5c-0.2-0.2-0.3-0.3-0.6-0.4c-0.2-0.1-0.5-0.2-1-0.2h-2.9V36
		h1.3v-2.4h1.3c0.4,0,0.6,0.1,0.7,0.2c0.1,0.1,0.2,0.4,0.2,0.8l0,0.6c0,0.2,0,0.4,0.1,0.5c0,0.1,0,0.2,0.1,0.3h1.4v-0.2
		C101.4,35.8,101.3,35.7,101.3,35.5z M99.8,32.5c-0.1,0.1-0.3,0.1-0.6,0.1h-1.4v-1.6h1.4c0.3,0,0.5,0,0.6,0.1
		c0.2,0.1,0.4,0.4,0.4,0.7C100.2,32.1,100,32.4,99.8,32.5z"/>
	<path class="st0" d="M104.4,29.9l-2.2,6.1h1.3l0.4-1.3h2.3l0.4,1.3h1.4l-2.2-6.1H104.4z M104.3,33.7l0.8-2.4l0.8,2.4H104.3z"/>
	<polygon class="st0" points="110.1,29.9 108.8,29.9 108.8,36 113.2,36 113.2,34.9 110.1,34.9 	"/>
	<rect x="113.9" y="29.9" class="st0" width="1.3" height="6.1"/>
	<path class="st0" d="M118.1,29.9L116,36h1.3l0.4-1.3h2.3l0.4,1.3h1.4l-2.2-6.1H118.1z M118.1,33.7l0.8-2.4l0.8,2.4H118.1z"/>
	<polygon class="st0" points="126.3,34.2 123.9,29.9 122.5,29.9 122.5,36 123.7,36 123.7,31.7 126.2,36 127.5,36 127.5,29.9 
		126.3,29.9 	"/>
	<path class="st0" d="M133.8,29.7c-0.9,0-1.5,0.2-2,0.7c-0.6,0.6-0.9,1.4-0.9,2.5c0,1.1,0.3,1.9,0.9,2.5c0.5,0.5,1.1,0.7,2,0.7
		c0.9,0,1.5-0.2,2-0.7c0.6-0.6,0.9-1.4,0.9-2.5c0-1.1-0.3-2-0.9-2.5C135.3,29.9,134.7,29.7,133.8,29.7z M135,34.5
		c-0.3,0.4-0.7,0.6-1.2,0.6c-0.5,0-0.9-0.2-1.2-0.6c-0.3-0.4-0.5-0.9-0.5-1.6c0-0.7,0.2-1.2,0.5-1.6c0.3-0.4,0.7-0.6,1.2-0.6
		c0.5,0,0.9,0.2,1.2,0.6c0.3,0.4,0.4,0.9,0.4,1.6C135.4,33.6,135.3,34.2,135,34.5z"/>
	<polygon class="st0" points="142.8,33.4 142.6,34.4 142.5,33.4 141.7,29.9 140.4,29.9 139.7,33.4 139.5,34.4 139.3,33.4 
		138.5,29.9 137.2,29.9 138.9,36 140.1,36 140.8,32.4 141.1,31.2 141.3,32.4 142,36 143.2,36 145,29.9 143.7,29.9 	"/>
	<polygon class="st0" points="149.5,34.2 147.1,29.9 145.7,29.9 145.7,36 146.9,36 146.9,31.7 149.4,36 150.7,36 150.7,29.9 
		149.5,29.9 	"/>
	<polygon class="st0" points="153.2,33.3 156.2,33.3 156.2,32.3 153.2,32.3 153.2,31 156.4,31 156.4,29.9 151.9,29.9 151.9,36 
		156.6,36 156.6,34.9 153.2,34.9 	"/>
	<path class="st0" d="M162.2,30.8c-0.3-0.4-0.6-0.6-1-0.8c-0.3-0.1-0.6-0.1-0.9-0.1h-2.6V36h2.6c0.9,0,1.6-0.4,2.1-1.1
		c0.3-0.6,0.5-1.3,0.5-2.1c0-0.3,0-0.7-0.1-1C162.6,31.4,162.4,31.1,162.2,30.8z M161.3,34c-0.2,0.6-0.7,0.9-1.3,0.9h-1.2v-4h1.2
		c0.6,0,1,0.2,1.2,0.5c0.2,0.3,0.3,0.8,0.3,1.4C161.5,33.3,161.4,33.7,161.3,34z"/>
</g>
</svg>
