<?xml version="1.0" encoding="utf-8"?>
<!-- Generator: Adobe Illustrator 23.0.0, SVG Export Plug-In . SVG Version: 6.00 Build 0)  -->
<svg version="1.1" id="Layer_1" xmlns="http://www.w3.org/2000/svg" xmlns:xlink="http://www.w3.org/1999/xlink" x="0px" y="0px"
	 viewBox="0 0 35 35" style="enable-background:new 0 0 35 35;" xml:space="preserve">
<style type="text/css">
	.st0{fill:#FFFFFF;}
</style>
<g>
	<path class="st0" d="M32.3,0H2.6C1.2,0,0,1.1,0,2.5v29.9c0,1.4,1.2,2.6,2.6,2.5h29.8c1.4,0,2.6-1.1,2.6-2.5V2.5
		C34.9,1.1,33.7,0,32.3,0z M31.8,17.5L31.8,17.5c0,4.2-0.4,6.6-1.2,7.9c-0.8,1.4-1.6,1.6-3.3,1.7c-1.7,0.1-6,0.2-9.7,0.2
		s-8-0.1-9.7-0.2s-2.5-0.4-3.3-1.7c-0.8-1.4-1.2-3.8-1.2-7.9l0,0l0,0l0,0c0-4.2,0.4-6.5,1.2-7.9S6.2,8,7.9,7.9s6-0.2,9.7-0.2
		s8,0,9.7,0.2C29,8,29.9,8.2,30.6,9.6C31.4,11,31.8,13.3,31.8,17.5L31.8,17.5z"/>
	<polygon class="st0" points="13.9,22.9 22.9,17.5 13.9,12.1 	"/>
</g>
</svg>
